<?xml version="1.0" standalone="no"?>
<!DOCTYPE svg PUBLIC "-//W3C//DTD SVG 20010904//EN"
 "http://www.w3.org/TR/2001/REC-SVG-20010904/DTD/svg10.dtd">
<svg version="1.0" xmlns="http://www.w3.org/2000/svg"
 width="820.000000pt" height="374.000000pt" viewBox="0 0 820.000000 374.000000"
 preserveAspectRatio="xMidYMid meet">

<g transform="translate(0.000000,374.000000) scale(0.100000,-0.100000)"
fill="#000000" stroke="none">
<path d="M1640 3635 c-195 -27 -377 -83 -554 -172 -133 -66 -195 -105 -305
-191 -698 -543 -890 -1525 -450 -2294 118 -206 322 -430 519 -570 115 -82 341
-196 470 -238 366 -118 754 -118 1120 0 129 42 355 156 470 238 124 88 304
263 395 383 402 534 473 1257 181 1854 -272 554 -785 918 -1406 995 -111 13
-321 11 -440 -5z m408 -146 c636 -69 1186 -508 1378 -1102 67 -209 78 -278 78
-517 0 -241 -13 -328 -80 -529 -158 -475 -544 -861 -1022 -1021 -341 -114
-703 -114 -1044 0 -478 160 -864 546 -1022 1021 -67 201 -80 288 -80 529 0
239 11 308 78 517 230 711 964 1184 1714 1102z"/>
<path d="M833 2639 c-76 -37 -73 -10 -73 -697 l0 -609 23 -34 c12 -18 34 -39
47 -46 36 -18 2064 -18 2100 0 13 7 35 28 47 46 l23 34 0 609 c0 688 3 660
-74 698 -42 20 -56 20 -1047 20 -994 0 -1004 0 -1046 -21z m2078 -76 c12 -13
14 -123 14 -620 0 -587 -1 -605 -19 -619 -30 -21 -2022 -21 -2052 0 -18 14
-19 32 -19 619 0 497 2 607 14 620 12 16 97 17 1031 17 934 0 1019 -1 1031
-17z"/>
<path d="M1588 2211 c-45 -15 -85 -43 -102 -71 -20 -35 -21 -112 -2 -149 19
-35 42 -50 139 -91 90 -37 117 -66 99 -106 -24 -50 -119 -58 -239 -20 -22 7
-23 5 -23 -42 0 -59 3 -61 115 -69 153 -11 245 40 260 142 13 85 -33 143 -151
189 -111 43 -131 69 -88 113 24 24 30 25 97 20 40 -3 80 -8 90 -12 15 -6 17
-1 17 38 0 33 -4 47 -17 52 -29 11 -166 15 -195 6z"/>
<path d="M1920 1940 l0 -270 50 0 50 0 0 120 0 120 90 0 90 0 0 -120 0 -120
50 0 50 0 0 270 0 270 -50 0 -50 0 0 -105 0 -105 -90 0 -90 0 0 105 0 105 -50
0 -50 0 0 -270z"/>
<path d="M1138 2012 c-129 -110 -136 -118 -118 -132 10 -8 72 -61 138 -117
l119 -102 32 33 32 33 -88 73 c-48 40 -94 78 -101 85 -10 9 8 29 88 95 l101
83 -33 34 c-17 18 -32 33 -32 32 -1 0 -63 -53 -138 -117z"/>
<path d="M2452 2097 l-32 -33 100 -83 c55 -46 98 -87 95 -91 -2 -4 -47 -42
-100 -86 l-95 -78 32 -33 31 -32 51 42 c130 109 214 183 216 190 1 8 -70 72
-216 194 l-51 42 -31 -32z"/>
<path d="M646 1212 c-11 -18 16 -82 45 -106 l31 -26 1158 0 1158 0 31 26 c29
24 56 88 45 106 -7 11 -2461 11 -2468 0z"/>
<path d="M5257 2373 c-4 -3 -7 -33 -7 -65 l0 -58 -47 0 c-60 0 -124 -29 -151
-68 -47 -65 -49 -201 -6 -267 38 -58 117 -71 178 -30 37 25 38 25 43 5 4 -15
14 -20 39 -20 l34 0 0 255 0 255 -38 0 c-21 0 -42 -3 -45 -7z m-9 -289 c3 -89
2 -92 -27 -123 -32 -34 -57 -39 -86 -17 -14 10 -20 30 -23 80 -7 106 27 160
98 154 l35 -3 3 -91z"/>
<path d="M7070 2345 l0 -35 50 0 50 0 0 -185 0 -185 -55 0 -55 0 0 -35 0 -35
155 0 155 0 0 34 0 35 -52 3 -53 3 -3 218 -2 217 -95 0 -95 0 0 -35z"/>
<path d="M3935 2351 c-80 -20 -115 -62 -115 -136 0 -65 25 -95 108 -131 96
-43 102 -47 108 -71 17 -67 -52 -87 -193 -57 l-33 7 0 -42 c0 -36 3 -42 28
-48 15 -5 65 -8 112 -8 99 0 144 19 173 75 23 44 18 121 -9 152 -10 11 -53 37
-94 56 -114 52 -133 78 -89 118 22 20 78 24 142 10 l37 -8 0 35 c0 20 -4 38
-8 41 -16 10 -137 15 -167 7z"/>
<path d="M6230 2105 l0 -235 45 0 45 0 0 100 0 100 80 0 80 0 0 -100 0 -100
45 0 45 0 0 235 0 235 -45 0 -44 0 -3 -97 -3 -98 -75 0 -75 0 -3 98 -3 97 -44
0 -45 0 0 -235z"/>
<path d="M4315 2246 c-5 -2 -22 -7 -37 -10 -24 -6 -28 -11 -28 -42 0 -30 3
-35 17 -30 9 4 42 9 73 13 70 7 100 -7 100 -46 0 -27 -3 -29 -57 -35 -136 -16
-197 -92 -148 -185 28 -56 126 -66 187 -21 l29 22 6 -21 c4 -16 13 -21 39 -21
l34 0 0 144 c0 158 -6 186 -45 212 -24 15 -145 30 -170 20z m123 -243 c-2 -30
-9 -41 -36 -56 -38 -22 -78 -17 -87 13 -15 47 21 77 93 79 32 1 33 0 30 -36z"/>
<path d="M4775 2241 c-12 -5 -27 -16 -34 -25 -18 -21 -28 -20 -34 5 -4 16 -12
20 -39 17 l-33 -3 -3 -182 -2 -183 45 0 45 0 0 123 0 123 33 32 c37 36 58 40
81 16 13 -12 16 -41 16 -155 l0 -139 45 0 45 0 0 133 c0 143 -9 194 -40 222
-22 20 -95 29 -125 16z"/>
<path d="M6736 2230 c-63 -32 -94 -89 -95 -176 -2 -91 32 -153 96 -180 34 -15
128 -18 182 -8 27 6 31 11 31 39 l0 33 -79 -5 c-79 -6 -80 -5 -110 25 -19 18
-31 41 -31 56 l0 26 120 0 120 0 0 43 c0 23 -9 61 -19 84 -35 75 -134 105
-215 63z m119 -75 c45 -44 34 -55 -50 -55 -61 0 -75 3 -75 15 0 25 47 65 75
65 14 0 37 -11 50 -25z"/>
<path d="M7536 2227 c-103 -58 -122 -242 -34 -324 34 -32 71 -43 143 -43 88 0
117 12 113 48 l-3 27 -76 -3 c-70 -4 -78 -2 -107 23 -23 19 -32 35 -32 56 l0
29 114 0 c128 0 131 2 120 71 -19 116 -138 173 -238 116z m122 -64 c11 -10 23
-28 27 -40 6 -22 4 -23 -69 -23 -85 0 -96 11 -51 55 28 29 65 32 93 8z"/>
<path d="M8005 2240 c-12 -4 -27 -15 -34 -24 -18 -21 -28 -20 -34 5 -4 16 -12
20 -39 17 l-33 -3 -3 -182 -2 -183 45 0 45 0 0 123 0 123 33 32 c37 36 71 41
87 13 5 -11 10 -81 10 -155 l0 -136 45 0 45 0 0 140 c0 159 -11 199 -59 224
-32 17 -74 20 -106 6z"/>
<path d="M5407 2233 c-2 -4 27 -86 65 -182 61 -156 68 -178 57 -203 -15 -37
-33 -50 -77 -57 -33 -6 -37 -10 -40 -39 l-3 -32 48 0 c57 0 99 23 138 74 25
33 166 360 181 421 6 24 4 25 -34 25 -22 0 -44 -6 -50 -12 -5 -7 -28 -65 -50
-128 -22 -63 -43 -115 -48 -115 -5 0 -29 56 -54 125 l-45 125 -42 3 c-22 2
-43 -1 -46 -5z"/>
<path d="M4357 1633 c-10 -9 -8 -285 1 -301 5 -7 31 -15 58 -18 102 -12 161
42 151 140 -7 81 -64 114 -139 81 -16 -6 -18 -1 -18 49 0 52 -2 56 -23 56 -13
0 -27 -3 -30 -7z m143 -152 c29 -55 -5 -125 -58 -119 -25 3 -27 7 -30 50 -2
37 1 51 17 67 26 26 57 27 71 2z"/>
<path d="M5047 1633 c-4 -3 -7 -23 -7 -43 0 -37 0 -37 -47 -43 -69 -8 -103
-48 -103 -123 0 -48 4 -59 29 -85 33 -32 58 -36 101 -14 25 13 29 13 34 0 3
-8 15 -15 26 -15 19 0 20 6 20 165 l0 165 -23 0 c-13 0 -27 -3 -30 -7z m-7
-185 c0 -54 -19 -88 -50 -88 -26 0 -40 21 -40 64 0 48 23 76 62 76 27 0 28 -2
28 -52z"/>
<path d="M6002 1623 c2 -11 15 -20 33 -23 l30 -5 3 -117 3 -117 -38 -3 c-30
-2 -38 -7 -38 -23 0 -19 8 -20 103 -23 l102 -3 0 26 c0 22 -4 25 -35 25 l-35
0 0 140 0 140 -66 0 c-57 0 -65 -2 -62 -17z"/>
<path d="M3789 1613 c-2 -16 1 -100 7 -200 l6 -103 29 0 c32 0 38 7 53 68 7
25 16 47 21 49 6 2 18 -24 28 -57 16 -56 19 -60 47 -60 16 0 31 3 33 8 3 4 8
73 12 155 7 143 7 147 -13 147 -25 0 -32 -33 -32 -149 0 -94 -8 -95 -35 -4
-25 86 -53 81 -74 -12 -7 -30 -17 -55 -22 -55 -5 0 -9 39 -9 88 0 106 -6 132
-31 132 -11 0 -19 -3 -20 -7z"/>
<path d="M4132 1537 c-36 -21 -56 -57 -56 -107 -1 -60 23 -96 74 -111 55 -17
125 -2 125 26 0 18 -6 20 -52 17 -41 -3 -55 0 -72 17 -35 35 -26 41 59 41 l80
0 0 34 c0 52 -35 87 -90 92 -27 3 -54 -1 -68 -9z m82 -43 c31 -12 16 -24 -29
-24 -42 0 -54 7 -38 23 8 9 46 9 67 1z"/>
<path d="M5205 1517 c-30 -30 -35 -42 -35 -81 0 -60 16 -92 55 -111 58 -27
150 -13 143 23 -3 14 -12 16 -55 14 -41 -3 -55 0 -72 17 -35 35 -26 41 59 41
l80 0 0 34 c0 52 -35 87 -93 93 -43 5 -49 3 -82 -30z m113 -34 c2 -9 -10 -13
-42 -13 -44 0 -61 12 -33 24 21 9 70 2 75 -11z"/>
<path d="M5441 1498 c71 -182 72 -183 108 -183 34 0 34 1 77 109 24 59 44 112
44 117 0 5 -13 9 -29 9 -26 0 -30 -5 -57 -85 -16 -47 -32 -85 -35 -85 -4 0
-20 37 -35 83 -28 78 -30 82 -62 85 l-32 3 21 -53z"/>
<path d="M5764 1531 c-82 -50 -66 -185 25 -212 56 -17 126 -2 126 26 0 18 -6
20 -48 17 -51 -4 -97 16 -97 43 0 12 16 15 80 15 79 0 80 0 80 25 0 86 -90
133 -166 86z m96 -46 c11 -13 6 -15 -34 -15 -43 0 -55 7 -39 23 12 13 60 7 73
-8z"/>
<path d="M6304 1531 c-52 -32 -69 -111 -35 -167 36 -59 121 -69 177 -21 32 27
43 100 24 147 -24 58 -106 78 -166 41z m106 -50 c15 -30 12 -82 -7 -103 -35
-39 -93 -7 -93 52 0 60 74 98 100 51z"/>
<path d="M6540 1385 l0 -165 30 0 c29 0 30 2 30 45 0 41 2 45 25 45 40 0 92
26 111 55 37 56 11 168 -42 181 -14 4 -43 2 -63 -4 -23 -8 -37 -8 -39 -2 -2 6
-15 10 -28 10 l-24 0 0 -165z m149 82 c19 -55 -11 -107 -61 -107 -27 0 -28 2
-28 52 0 58 19 88 56 88 17 0 25 -9 33 -33z"/>
<path d="M6858 1535 c-40 -22 -63 -91 -48 -144 6 -24 21 -48 36 -57 53 -35
170 -25 162 14 -3 14 -12 16 -55 14 -41 -3 -55 0 -72 17 -35 35 -26 41 59 41
l80 0 0 34 c0 52 -35 87 -90 92 -29 3 -55 -1 -72 -11z m100 -52 c2 -9 -10 -13
-42 -13 -43 0 -55 7 -39 24 12 11 76 2 81 -11z"/>
<path d="M7100 1430 l0 -120 25 0 c24 0 25 3 25 63 0 44 6 71 20 95 24 40 56
43 70 6 7 -19 16 -25 33 -22 18 2 22 9 20 33 -4 59 -68 83 -117 44 l-26 -20 0
20 c0 16 -6 21 -25 21 l-25 0 0 -120z"/>
</g>
</svg>
